<svg width="40" height="40" viewBox="0 0 40 40" fill="none" xmlns="http://www.w3.org/2000/svg">
<path fill-rule="evenodd" clip-rule="evenodd" d="M13.2392 0.327118C11.5055 0.869978 9.89705 1.9097 8.48002 3.40318C5.30878 6.74532 3.93558 10.4754 3.92434 15.7784C3.9131 21.1309 5.5412 25.3205 8.74788 28.1909C11.9048 31.017 15.6625 31.6869 18.9398 30.0084C20.0111 29.4598 22.479 27.1124 22.479 26.6422C22.479 26.5085 22.0539 26.5809 21.3932 26.8272C19.7889 27.4247 18.579 27.5126 16.9842 27.1475C13.3276 26.3103 10.5669 23.3388 9.79817 19.413C9.48154 17.7954 9.44401 14.6935 9.72273 13.1588C10.4972 8.89283 12.8639 3.81837 15.319 1.16059L16.3908 0L15.2914 0.0144377C14.6865 0.0222753 13.7631 0.16294 13.2392 0.327118ZM21.2406 1.88227C18.347 2.60643 15.8644 4.48354 14.2119 7.19742C12.3245 10.2968 11.5495 13.0101 11.5547 16.5003C11.5583 19.0166 11.9207 20.5928 12.8622 22.1904C13.9488 24.0339 15.8558 25.3692 17.4026 25.3692H17.9936L17.2761 24.729C15.9681 23.5618 14.8675 20.463 14.8614 17.93C14.8585 16.7525 15.3375 14.5122 15.8804 13.1635C16.3076 12.1025 17.9216 10.058 19.206 8.95079C20.5386 7.80237 22.0116 6.96972 23.736 6.39015C24.4591 6.14718 25.1795 5.89473 25.3366 5.82893C25.4938 5.76334 25.7081 5.73199 25.8129 5.75963C25.9177 5.78706 25.9339 5.73426 25.8489 5.64227C25.7639 5.55028 25.2067 5.46778 24.6106 5.45912C24.0145 5.45046 23.193 5.42509 22.7849 5.40302L22.0431 5.36259L22.9229 4.63534C24.1 3.66224 25.2414 2.04913 24.9125 1.82308C24.5917 1.60259 22.2041 1.64095 21.2406 1.88227ZM24.7245 8.35822C24.0211 8.50982 22.7722 9.01307 21.949 9.47673C18.5171 11.4097 16.3552 15.0646 16.3959 18.864C16.4165 20.7786 16.6512 21.1765 16.946 19.7966C17.4291 17.5353 19.3792 14.7046 21.1292 13.7249C22.9865 12.685 25.8081 12.5567 28.0038 13.4118C29.2366 13.892 31.0851 15.0264 31.328 15.4519C31.3981 15.5748 31.5557 15.6753 31.6782 15.6753C31.8007 15.6753 31.5812 15.39 31.1906 15.0415C30.4149 14.3493 30.2295 13.8654 30.8856 14.2455C31.1906 14.4223 31.325 14.4208 31.4282 14.2397C31.8186 13.556 35.0045 17.5058 36.7673 20.8586C37.4484 22.1543 38.2893 23.0039 38.432 22.5404C38.4729 22.4074 38.6295 22.3496 38.78 22.4121C38.9303 22.4746 39.0534 22.4429 39.0534 22.3416C39.0534 22.2403 39.2152 22.1576 39.4127 22.1576C39.6274 22.1576 39.7343 22.2645 39.6781 22.4226C39.6265 22.5685 39.6791 22.6879 39.7951 22.6879C40.0631 22.6879 40.07 20.0524 39.8052 18.7691C39.5339 17.4536 38.6964 15.3203 38.0239 14.2315C36.9708 12.5264 34.8624 10.4758 33.3289 9.66545C31.4536 8.67399 31.0173 8.51827 29.396 8.26128C27.6502 7.98428 26.3328 8.01171 24.7245 8.35822ZM22.9789 15.0662C22.1671 15.2871 20.3982 16.195 20.0976 16.5452C19.9633 16.7016 20.0197 16.7177 20.2881 16.5997C20.4977 16.5073 21.3437 16.3906 22.1682 16.34C23.4635 16.2606 23.8392 16.3221 24.9306 16.7921C26.2332 17.3529 27.0842 18.0486 27.6788 19.0382C27.8668 19.3511 28.1015 19.553 28.2004 19.4868C28.2995 19.4206 28.3347 19.4955 28.2787 19.6535C28.2227 19.8113 28.3259 20.0714 28.5079 20.2314C28.7906 20.4797 28.8154 20.4799 28.6776 20.2324C28.5765 20.0505 28.5883 19.9909 28.7096 20.0722C29.0802 20.3201 30.2503 23.2149 30.581 24.702C30.8371 25.8533 30.8923 26.7397 30.8195 28.5286C30.7673 29.809 30.6387 31.0374 30.5341 31.2583C30.4294 31.4792 30.289 31.9848 30.2221 32.3818L30.1005 33.1037L30.5212 32.3818C30.7527 31.9848 31.031 31.5917 31.14 31.5083C31.2488 31.425 31.26 31.3555 31.1651 31.3536C31.0702 31.352 31.4396 30.8865 31.986 30.3193C32.5324 29.7521 33.0287 29.288 33.0889 29.288C33.1489 29.288 33.348 29.1011 33.5309 28.8726C33.8631 28.4578 33.8639 28.458 33.9887 28.9242C34.0575 29.181 34.167 30.2671 34.2323 31.338C34.3724 33.6369 34.5318 33.3642 34.8565 30.27C35.0996 27.9554 35.0334 26.7765 34.5364 24.5524C33.3488 19.2375 29.3667 15.1537 25.1627 14.9392C24.3677 14.8985 23.385 14.9557 22.9789 15.0662ZM32.6713 16.7065C33.0805 17.1603 33.4583 17.5316 33.5107 17.5316C33.5631 17.5316 33.271 17.1603 32.8618 16.7065C32.4526 16.2528 32.0748 15.8815 32.0224 15.8815C31.97 15.8815 32.2621 16.2528 32.6713 16.7065ZM0.810624 17.6468C0.462942 18.3339 -0.000190452 21.6265 5.87564e-08 23.4098C0.000381081 29.5572 2.67077 34.9354 6.80658 37.1186C9.91838 38.7612 14.4946 38.2555 17.9562 35.8865C19.4738 34.848 21.6937 32.462 22.7786 30.7031C23.6197 29.3394 24.5868 26.919 24.5612 26.241C24.5538 26.0451 24.43 26.2317 24.2861 26.6556C23.6784 28.4471 21.9229 30.5045 20.1917 31.4543C15.6937 33.9219 10.3888 32.8319 6.49757 28.6404C4.29755 26.2705 2.26689 22.2271 1.28119 18.2534C1.0501 17.3212 1.00475 17.263 0.810624 17.6468ZM24.0398 18.5276C24.1768 18.7171 24.3374 18.9186 24.3966 18.9753C24.7988 19.36 25.814 21.2505 26.0949 22.1376C26.4953 23.4024 26.6955 24.9154 26.4814 25.0586C26.3976 25.1147 26.3621 25.6949 26.4025 26.3477C26.4576 27.2358 26.4283 27.4309 26.2859 27.1223C26.1412 26.8086 26.1187 26.932 26.1918 27.638C26.2728 28.4213 26.1581 28.8757 25.4563 30.5505C24.0539 33.8965 22.0797 36.3132 18.7909 38.7101C17.177 39.8859 17.3506 40.0879 19.8745 39.9711C21.3134 39.9045 21.8167 39.7867 22.7274 39.3035C24.707 38.2532 26.4665 36.0372 27.3621 33.4667C29.2817 27.9573 28.4006 22.1886 25.1581 19.0376C24.3864 18.2877 23.611 17.934 24.0398 18.5276ZM34.4812 19.1816C34.5934 19.4085 34.7279 19.5941 34.7803 19.5941C34.8326 19.5941 34.7839 19.4085 34.6717 19.1816C34.5595 18.9547 34.425 18.7691 34.3726 18.7691C34.3202 18.7691 34.3689 18.9547 34.4812 19.1816Z" fill="black"/>
</svg>
